<?xml version="1.0" standalone="no"?>
<!DOCTYPE svg PUBLIC "-//W3C//DTD SVG 20010904//EN"
 "http://www.w3.org/TR/2001/REC-SVG-20010904/DTD/svg10.dtd">
<svg version="1.0" xmlns="http://www.w3.org/2000/svg"
 width="499.000000pt" height="499.000000pt" viewBox="0 0 499.000000 499.000000"
 preserveAspectRatio="xMidYMid meet">

<g transform="translate(0.000000,499.000000) scale(0.100000,-0.100000)"
fill="#000000" stroke="none">
<path d="M3535 3132 c-22 -2 -166 -18 -320 -37 -154 -19 -363 -42 -465 -50
-242 -20 -629 -63 -642 -71 -5 -4 -21 0 -35 7 -19 10 -28 10 -43 1 -25 -15
-81 -15 -131 0 -27 8 -46 8 -61 1 -23 -10 -69 -3 -113 17 -11 5 -38 11 -60 13
-22 3 -134 30 -250 61 -138 37 -230 56 -267 56 -68 0 -77 -15 -16 -25 74 -12
481 -117 500 -128 10 -7 18 -15 18 -19 0 -12 -145 -10 -176 2 -22 9 -30 7 -44
-8 -16 -17 -45 -19 -401 -26 -477 -9 -614 -15 -642 -26 -17 -7 -12 -9 28 -10
88 -2 348 1 420 5 71 4 572 8 590 4 6 0 94 0 197 1 l186 2 16 -31 c21 -39 20
-42 -6 -36 -19 5 -27 -1 -43 -32 -30 -58 -125 -154 -145 -148 -14 4 -16 1 -13
-18 7 -35 -12 -38 -262 -44 -245 -5 -310 -18 -381 -74 -49 -39 -58 -37 -49 8
9 49 12 53 40 53 13 0 27 5 30 10 3 6 -2 10 -12 10 -11 0 -24 5 -30 11 -8 8
-17 0 -32 -32 -12 -23 -21 -50 -21 -59 0 -10 -5 -31 -11 -48 -12 -36 -42 -49
-143 -62 -76 -9 -108 -29 -87 -54 7 -9 10 -24 6 -36 -11 -36 4 -89 30 -106 20
-13 31 -14 57 -5 28 10 36 9 60 -9 16 -12 33 -18 38 -15 12 7 50 -12 50 -25 0
-17 -102 -9 -293 25 -25 4 -28 2 -25 -17 3 -21 15 -24 156 -48 120 -19 158
-30 175 -46 29 -28 60 -37 132 -40 105 -5 176 -16 172 -28 -2 -6 -24 -11 -49
-11 -26 0 -49 -3 -53 -7 -14 -13 45 -40 117 -53 40 -7 91 -20 112 -30 41 -18
110 -23 628 -45 189 -8 262 -8 278 0 29 15 15 32 -25 29 -35 -3 -65 14 -65 37
0 8 8 14 19 14 28 0 43 24 35 56 l-7 28 26 -17 c33 -21 114 -22 142 -1 14 11
34 13 75 9 30 -4 76 -2 103 3 l47 9 0 -29 c0 -27 3 -29 32 -26 27 2 33 7 33
28 l0 25 308 5 c170 3 318 2 329 -3 11 -4 26 -3 33 3 6 5 52 14 101 19 49 5
175 19 279 31 151 18 197 20 222 11 17 -7 65 -18 105 -26 40 -7 83 -17 96 -20
13 -5 22 -3 22 3 0 6 -21 17 -47 24 -27 8 -49 20 -51 28 -4 22 114 162 153
183 34 19 62 72 80 155 3 17 10 32 15 32 5 0 69 -30 144 -66 80 -40 141 -64
151 -60 13 4 15 18 13 63 l-3 58 -95 25 c-92 25 -190 63 -190 74 0 3 12 31 26
63 14 32 34 82 45 111 10 29 27 66 39 81 23 33 25 47 8 49 -7 1 -34 4 -59 8
-53 7 -47 14 -74 -91 -9 -33 -25 -91 -36 -128 l-20 -68 -39 5 c-42 5 -80 22
-80 35 0 5 -6 8 -12 8 -7 -1 -58 20 -112 46 -108 51 -108 51 -126 -12 -12 -42
-9 -47 38 -62 47 -15 202 -86 202 -92 0 -5 -228 -178 -298 -227 -35 -25 -37
-25 -226 -22 -105 2 -231 8 -281 12 -49 5 -182 14 -295 20 -113 6 -215 13
-227 16 -31 6 -29 24 2 24 21 0 25 5 26 33 3 84 -2 91 -94 112 -40 9 -103 29
-142 44 -69 27 -70 27 -70 65 0 27 -5 40 -20 48 -11 6 -29 19 -40 29 -14 12
-50 21 -118 28 -131 15 -136 18 -134 83 1 52 0 53 -31 56 -26 3 -32 0 -32 -17
0 -28 -18 -36 -39 -17 -10 9 -25 16 -35 16 -13 0 -17 7 -14 28 3 24 8 27 42
30 21 2 55 -4 76 -12 34 -14 61 -14 252 -1 201 14 329 28 372 41 51 16 -27 21
-260 17 -164 -3 -254 -2 -254 5 0 11 56 16 340 31 329 18 557 44 830 96 74 14
162 30 195 36 103 19 93 34 -25 41 -30 2 -73 2 -95 0z m-1647 -280 c2 -15 -2
-22 -12 -22 -11 0 -16 9 -16 26 0 31 23 28 28 -4z m-472 -317 c16 -34 16 -35
-7 -55 -32 -26 -43 -25 -64 6 -14 21 -22 25 -45 20 -25 -4 -31 -1 -44 26 -9
17 -16 33 -16 35 0 1 36 3 80 3 l79 0 17 -35z m-342 -58 c9 -14 7 -21 -6 -31
-10 -7 -18 -18 -18 -24 0 -16 -18 -24 -40 -17 -24 8 -26 42 -4 73 18 27 51 26
68 -1z m513 -195 c6 -4 13 -16 15 -27 2 -16 -3 -21 -27 -23 -22 -2 -26 0 -16
7 12 7 12 13 3 24 -18 21 0 35 25 19z m-34 -244 c9 -7 17 -26 19 -43 l3 -30
-65 0 c-62 0 -65 1 -68 25 -2 21 4 29 30 42 41 20 59 22 81 6z m148 0 c43 2
61 -2 81 -17 14 -11 53 -25 88 -30 70 -12 75 -14 67 -35 -5 -12 -31 -14 -164
-9 -87 3 -161 8 -164 11 -4 4 -9 24 -12 44 -6 39 5 52 33 40 8 -3 40 -5 71 -4z
m-302 -34 c2 -2 -2 -10 -9 -19 -9 -11 -32 -15 -86 -15 -41 0 -74 4 -74 8 0 21
66 41 115 36 28 -4 52 -8 54 -10z m721 -80 c0 -17 -6 -24 -20 -24 -13 0 -20 7
-20 20 0 17 -7 20 -45 20 -31 0 -45 4 -45 13 0 24 10 25 70 10 52 -14 60 -19
60 -39z"/>
</g>
</svg>
